<svg width="460.00001220703126" height="259.39850312426574" viewBox="0 0 266 150" class="looka-1j8o68f"><defs id="SvgjsDefs1946"></defs><g id="SvgjsG1947" featurekey="symbolFeature-0" transform="matrix(0.5999999542236363,0,0,0.5999999542236363,0.00012130736379185761,45.000504992584354)" fill="#111111"> <path xmlns="http://www.w3.org/2000/svg" d="m53.125 65.164v25.953c0 2.3984-0.96875 4.6953-2.7031 6.3633-1.6562 1.6055-4.3594 2.5195-6.6719 2.5195-5.8281 0-9-0.89062-10.969-2.6797-0.90625-0.83203-1.625-1.8828-2.1875-3.2383-1.3125 0.074219-2.5625-0.10156-3.7031-0.58203-2.375-1.0156-3.9844-2.9492-4.9844-4.9727-0.45312-0.89453-0.78125-1.793-1.0156-2.5938-4.5156-0.41016-6.9844-2.9609-8.7344-6.0625-1.4375-2.5625-2.0781-5.7148-3.625-7.5586-6.2812-7.5352-8.5312-13.957-8.5312-19.188 0-10.641 8.7656-16.887 12.609-19.117 0.5625-5.5352 4.1562-10.043 7.5938-11.727-0.03125-1.2852 0.14062-2.5 0.46875-3.6406 1.2812-4.2891 5.1875-7.8594 11.781-10.363 1.0938-3.1719 3.5938-5.6953 7.125-7.332 1.2812-0.625 2.6719-0.9375 4.0625-0.94531 1.7344-0.0078125 3.4844 0.46875 5.0156 1.4219 2.75 1.7148 4.4375 4.7305 4.4375 7.9766 0.015625 9.0195 0.015625 25.117 0.03125 41.066l2.7031-0.88281 5.2656-16.172c0.42188-1.2891 1.6094-2.1602 2.9688-2.1602s2.5469 0.87109 2.9688 2.1602l5.2656 16.172 16.172 5.2578c1.2812 0.41797 2.1562 1.6211 2.1562 2.9727s-0.875 2.5547-2.1562 2.9727c0 0-16.172 5.2578-16.172 5.2578l-5.2656 16.172c-0.42188 1.2891-1.6094 2.1602-2.9688 2.1602s-2.5469-0.87109-2.9688-2.1602l-5.2656-16.172zm-13.109-47.68c-1.5625-2.457-2.1562-4.5898-1.8438-6.4336 0.35938-2.0273 1.9375-3.4688 4.0469-4.4414 0.03125-0.011719 0.0625-0.023437 0.078125-0.035156 0.4375-0.21484 0.90625-0.32031 1.375-0.32422 0.57812-0.003906 1.1719 0.15625 1.6875 0.47656 0.92188 0.57422 1.4844 1.5859 1.4844 2.6719v0.007812c0.03125 18.227 0.03125 65.344 0.03125 81.711 0 0.70312-0.28125 1.3789-0.79688 1.8711-0.5625 0.55078-1.5312 0.76172-2.3281 0.76172-2.0781 0-3.7031-0.078125-4.9844-0.33203-0.76562-0.15234-1.3438-0.33203-1.7656-0.71484-0.14062-0.13281-0.26562-0.28125-0.375-0.44922 2.5625-1.3203 4.8438-3.0391 5.875-3.7891 1.3906-1.0156 1.7031-2.9727 0.6875-4.3672-1.0156-1.3945-2.9688-1.7031-4.3594-0.6875-1.0469 0.75781-3.5781 2.7383-6.25 3.8359-1.125 0.46484-2.2812 0.91016-3.2188 0.50391-0.9375-0.39453-1.4688-1.2266-1.875-2.0156-0.0625-0.15234-0.14062-0.30859-0.20312-0.46094 8.125-2.3047 12.406-9.3828 12.891-10.219 0.5-0.79688 6.5-11.113-3.7969-19.641-1.2969-1.0859-2.4375-2.1016-3.2812-3.043 2.2188-4.4492 1.2031-9.2812 1.2031-9.2812-0.35938-1.6836-2.0156-2.7578-3.7031-2.3945-1.6875 0.36328-2.7656 2.0273-2.3906 3.7148 0 0 0.84375 3.6992-1.4844 6.3203-1.0312 1.1758-2.7188 2.0547-5.2969 2.4258-4.4688 0.64844-6.2812-1.6953-6.2812-1.6953-0.92188-1.4609-2.8438-1.8984-4.3125-0.98047-1.4531 0.91797-1.8906 2.8516-0.96875 4.3086 0 0 3.3438 5.875 12.469 4.5547 2.7812-0.40234 4.9062-1.2461 6.5781-2.3203 0.96875 1.0078 2.1406 2.082 3.4688 3.1875v0.007812c6.3281 5.2344 2.4844 11.555 2.4844 11.555-0.03125 0.054687-0.078125 0.11719-0.10938 0.17578 0 0-3.8125 7.082-11.578 7.75-1.4844 0.125-2.6094-0.0625-3.4844-0.5625-1.4219-0.8125-2.125-2.2969-2.7969-3.7734-0.42188-0.9375-0.8125-1.8867-1.2031-2.8047 2.7031-0.51953 5.8906-1.9688 9.4062-4.5781 0.1875 0.16016 0.39062 0.33203 0.57812 0.50781 0.40625 0.37109 0.89062 0.69531 1 1.0859 0.45312 1.6641 2.1719 2.6445 3.8438 2.1914 1.6562-0.45703 2.6406-2.1797 2.1875-3.8398-0.28125-1.0547-1.0156-2.2227-2.0156-3.2734-1.6562-1.75-4.0312-3.2383-4.0312-3.2383-1.1406-0.71875-2.625-0.61719-3.6719 0.25781-3.0938 2.6016-5.8438 4.1719-8.1719 4.6914-1.3906 0.3125-2.5781 0.23047-3.3906-0.49609-3.6406-4.9414-5.1719-9.1484-5.1719-12.742 0-6.1289 4.1094-10.176 7.2188-12.359 1.0469 2.8594 3.0469 5.7969 6.4375 8.5391 1.3438 1.0859 3.3125 0.875 4.3906-0.46094 1.0938-1.3438 0.89062-3.3125-0.45312-4.3984-3-2.4297-4.5156-5.0039-4.9375-7.4727-0.60938-3.4961 0.9375-6.6992 2.875-8.3242 0.14062 0.28906 0.28125 0.58203 0.42188 0.875 1.6875 3.3672 4.5312 5.5117 9.3125 7.6953 1.6094 0.73438 5.9844 3.0195 5.9844 8.0938v4.6875c0 1.7266 1.4062 3.125 3.125 3.125 1.7344 0 3.125-1.3984 3.125-3.125v-4.6875c0-8.4766-6.9531-12.555-9.6406-13.781-3.1406-1.4336-5.2031-2.5938-6.3125-4.8047-1.2188-2.4219-1.6562-4.5-1.125-6.3125 0.65625-2.2305 2.625-3.8906 5.5781-5.2812 0.42188 1.7109 1.1719 3.5391 2.3594 5.4766-1.1875 0.55859-1.9375 1.832-1.7656 3.2031 0.20312 1.7148 1.75 2.9336 3.4688 2.7266 6.3906-0.77344 7.3281-5.3906 7.3281-5.3906 0.45312-1.6641-0.51562-3.3867-2.1719-3.8477-0.46875-0.12891-0.98438-0.027343-1.4531 0.18359zm38.109 60.641h-3.125c-1.7188 0-3.125 1.3984-3.125 3.125s1.4062 3.125 3.125 3.125h3.125v3.125c0 1.7266 1.4062 3.125 3.125 3.125s3.125-1.3984 3.125-3.125v-3.125h3.125c1.7188 0 3.125-1.3984 3.125-3.125s-1.4062-3.125-3.125-3.125h-3.125v-3.125c0-1.7266-1.4062-3.125-3.125-3.125s-3.125 1.3984-3.125 3.125zm-25-19.535 6.1562 2.0039c0.95312 0.30469 1.6875 1.0547 2 2.0039 0 0 2.7812 8.5469 2.7812 8.5469l2.7812-8.5469c0.3125-0.94922 1.0469-1.6992 2-2.0039l8.5469-2.7812-8.5469-2.7812c-0.95312-0.30469-1.6875-1.0547-2-2.0039 0 0-2.7812-8.5469-2.7812-8.5469l-2.7812 8.5469c-0.3125 0.94922-1.0469 1.6992-2 2.0039l-6.1562 2.0039zm32.656-47.055c-0.42188-1.2891-1.6094-2.1602-2.9688-2.1602s-2.5469 0.87109-2.9688 2.1602l-2.9688 9.0977-9.0938 2.957c-1.2812 0.41797-2.1562 1.6211-2.1562 2.9727s0.875 2.5547 2.1562 2.9727l9.0938 2.957 2.9688 9.0977c0.42188 1.2891 1.6094 2.1602 2.9688 2.1602s2.5469-0.87109 2.9688-2.1602l2.9688-9.0977 9.0938-2.957c1.2812-0.41797 2.1562-1.6211 2.1562-2.9727s-0.875-2.5547-2.1562-2.9727l-9.0938-2.957-2.9688-9.0977zm-2.9688 11.07 0.48438 1.4727c0.29688 0.95312 1.0469 1.6953 2 2.0078l1.4688 0.47656s-1.4688 0.47656-1.4688 0.47656c-0.95312 0.3125-1.7031 1.0547-2 2.0078l-0.48438 1.4727-0.48438-1.4727c-0.29688-0.95312-1.0469-1.6953-2-2.0078l-1.4688-0.47656s1.4688-0.47656 1.4688-0.47656c0.95312-0.3125 1.7031-1.0547 2-2.0078z" fill-rule="evenodd"></path></g><g id="SvgjsG1948" featurekey="textGroupContainer" transform="matrix(1,0,0,1,265,0)" fill="#111111"><rect xmlns="http://www.w3.org/2000/svg" y="0" height="1" width="1" opacity="0"></rect><rect xmlns="http://www.w3.org/2000/svg" y="0" x="-185" width="3" height="150"></rect></g><g id="SvgjsG1949" featurekey="vMvB0T-0" transform="matrix(5.259466956255508,0,0,5.259466956255508,89.79523247616784,6.337998992021102)" fill="#111111"><path d="M1.56 20 l0 -13.66 q0.62 -0.12 1.6 -0.12 t1.62 0.12 l0 13.66 q-0.64 0.12 -1.62 0.12 t-1.6 -0.12 z M17.66 10.56 q0 0.66 -0.2 1.25 t-0.53 1.06 t-0.78 0.82 t-0.93 0.53 q1.04 0.38 1.54 1.84 l0.6 1.7 q0.34 1 1 1.48 q-0.3 0.4 -0.9 0.67 t-1.32 0.27 t-1.12 -0.41 t-0.74 -1.43 l-0.72 -2.1 q-0.22 -0.6 -0.59 -0.92 t-1.11 -0.32 l-0.82 0 l0 5 q-0.64 0.12 -1.6 0.12 t-1.58 -0.12 l0 -13.56 l0.14 -0.14 q1.74 -0.04 2.93 -0.06 t1.87 -0.02 q1.1 0 2 0.27 t1.53 0.81 t0.98 1.36 t0.35 1.9 z M11.04 8.62 l0 3.92 q0.9 0 1.54 -0.03 t1.03 -0.24 t0.59 -0.59 t0.2 -1.1 q0 -1.94 -1.88 -1.94 l-0.83 0 t-0.65 -0.02 z M27.04 11.78 l0 -0.24 q0 -2.96 -2.2 -2.96 q-1.26 0 -1.82 1.15 t-0.56 3.39 q0 2.22 0.7 3.3 t2.04 1.08 q0.7 0 1.55 -0.33 t1.85 -1.05 q0.5 0.34 0.93 0.93 t0.53 1.13 q-0.46 0.44 -1.07 0.83 t-1.32 0.67 t-1.48 0.45 t-1.55 0.17 q-1.54 0 -2.6 -0.59 t-1.71 -1.57 t-0.94 -2.26 t-0.29 -2.66 q0 -1.8 0.45 -3.15 t1.22 -2.25 t1.81 -1.35 t2.22 -0.45 q1.2 0 2.18 0.32 t1.67 0.88 t1.06 1.32 t0.37 1.64 q0 1.78 -1.82 1.78 q-0.54 0 -1.22 -0.18 z"></path></g></svg>