<svg width="207" height="82" viewBox="0 0 207 82" fill="none" xmlns="http://www.w3.org/2000/svg">
<g clip-path="url(#clip0_22_68)">
<path d="M68.7333 3.81851H7.63704C3.41922 3.81851 0 7.23773 0 11.4556V71.0244C0 75.2423 3.41922 78.6615 7.63704 78.6615H68.7333C72.9512 78.6615 76.3704 75.2423 76.3704 71.0244V11.4556C76.3704 7.23773 72.9512 3.81851 68.7333 3.81851Z" fill="white"/>
<path d="M37.362 19.0933C35.9066 19.1005 34.4517 19.2503 33.0188 19.5433C32.9325 19.561 32.8514 19.5981 32.7814 19.6516C32.7114 19.7051 32.6544 19.7738 32.6148 19.8525C32.5751 19.9311 32.5537 20.0178 32.5522 20.1059C32.5507 20.194 32.5692 20.2813 32.6063 20.3612L32.6072 20.363C32.609 20.367 32.6108 20.371 32.6127 20.3749C32.6277 20.4055 32.6423 20.4361 32.6565 20.4671V20.468L32.6611 20.479C32.6611 20.4793 32.6611 20.4796 32.6611 20.4799C33.4405 22.3383 32.5747 24.4601 30.7177 25.2427C28.8611 26.0244 26.7378 25.1625 25.952 23.3076C25.9373 23.2697 25.9235 23.2318 25.91 23.1935C25.8804 23.1091 25.8318 23.0326 25.768 22.9699C25.7042 22.9073 25.6268 22.8601 25.5419 22.8321C25.457 22.804 25.3668 22.7959 25.2782 22.8082C25.1896 22.8205 25.105 22.853 25.031 22.9032C22.6462 24.5218 20.5984 26.5887 19.003 28.9887C18.957 29.058 18.9264 29.1364 18.9131 29.2186C18.8999 29.3007 18.9043 29.3848 18.9262 29.4651C18.9481 29.5453 18.9868 29.62 19.0399 29.6841C19.093 29.7482 19.1591 29.8003 19.2339 29.8367C20.017 30.2189 20.6365 30.8693 20.981 31.6697L20.9911 31.6943C21.7699 33.5525 20.9043 35.6738 19.0477 36.4562C18.2265 36.8008 17.3075 36.8328 16.4645 36.5457C16.3858 36.5189 16.3023 36.5092 16.2195 36.5172C16.1367 36.5252 16.0567 36.5509 15.9846 36.5923C15.9125 36.6338 15.8502 36.6902 15.8016 36.7577C15.7531 36.8252 15.7195 36.9023 15.7032 36.9838C15.1259 39.8776 15.1314 42.8576 15.7178 45.7496C15.7356 45.8374 15.7734 45.9199 15.8281 45.9908C15.8829 46.0616 15.9533 46.119 16.0337 46.1583C16.1142 46.1977 16.2026 46.218 16.2922 46.2177C16.3817 46.2174 16.47 46.1966 16.5503 46.1567C16.5843 46.1398 16.618 46.1233 16.6525 46.1074L16.6543 46.1065C18.5079 45.3188 20.6339 46.1735 21.4265 48.0253L21.4366 48.0508C22.2152 49.9087 21.3499 52.029 19.4941 52.8123L19.4932 52.8132C19.4514 52.8291 19.4087 52.8445 19.3663 52.8588C19.2813 52.8878 19.2042 52.936 19.1408 52.9996C19.0774 53.0632 19.0296 53.1406 19.001 53.2257C18.9724 53.3108 18.9638 53.4014 18.9758 53.4904C18.9879 53.5794 19.0203 53.6644 19.0705 53.7388C20.7128 56.1675 22.8191 58.2472 25.2687 59.8584C25.3399 59.9054 25.4207 59.9362 25.5051 59.9486C25.5896 59.961 25.6757 59.9548 25.7575 59.9303C25.8393 59.9059 25.9148 59.8638 25.9785 59.8071C26.0423 59.7503 26.0929 59.6803 26.1267 59.6019C26.497 58.7434 27.1825 58.0605 28.0427 57.6941C29.8967 56.905 32.0229 57.7595 32.8158 59.6119L32.8268 59.6375C33.186 60.4987 33.2012 61.4638 32.8688 62.3358C32.8383 62.4155 32.8257 62.5009 32.8318 62.586C32.8379 62.6711 32.8625 62.7539 32.904 62.8284C32.9455 62.903 33.0029 62.9676 33.072 63.0176C33.1411 63.0676 33.2204 63.1019 33.3042 63.118C34.6776 63.3808 36.0693 63.5102 37.4611 63.5114V62.2947C36.3343 62.2942 35.2073 62.2054 34.0892 62.0227C34.2899 61.074 34.2827 60.092 33.9048 59.1865C33.9045 59.1862 33.9042 59.1859 33.9039 59.1856L33.892 59.1564C33.8914 59.1549 33.8908 59.1533 33.8902 59.1518C32.8492 56.7197 30.0196 55.5826 27.5855 56.6188C26.6814 57.0039 25.9892 57.7045 25.4705 58.5256C23.5198 57.1656 21.822 55.4887 20.4329 53.559C22.4946 52.367 23.4587 49.8509 22.515 47.5992L22.5022 47.5691C22.5016 47.5679 22.501 47.5667 22.5004 47.5655C21.5438 45.3306 19.0834 44.2747 16.8009 44.9083C16.3922 42.539 16.3884 40.1258 16.7973 37.7563C17.7064 37.9196 18.6401 37.8951 19.5011 37.5336C19.5014 37.5336 19.5017 37.5336 19.502 37.5336C21.9397 36.5059 23.0923 33.6823 22.0697 31.2425L22.0569 31.2123C22.0563 31.2108 22.0557 31.2093 22.0551 31.2078C21.6959 30.3732 21.0633 29.7204 20.3235 29.2096C21.6691 27.296 23.3208 25.6298 25.2172 24.2603C26.4161 26.3112 28.9278 27.2656 31.1732 26.3195C33.4164 25.374 34.4862 22.9131 33.8596 20.6243C35.0223 20.4215 36.1932 20.2668 37.3694 20.261C37.4001 20.2609 37.4308 20.2628 37.4616 20.2628V19.0944C37.4287 19.0945 37.3958 19.0924 37.363 19.0926L37.362 19.0933ZM42.8909 19.1444C40.6494 19.1444 38.8703 21.0909 38.8033 23.4438V23.4447C38.8003 23.4686 38.7988 23.4927 38.7987 23.5168V23.5415C38.7986 23.5541 38.7969 23.5663 38.7969 23.5789C38.7965 23.5984 38.7971 23.6179 38.7987 23.6373L38.7932 26.4707C38.7929 26.513 38.7972 26.5553 38.806 26.5967C38.806 26.5973 38.806 26.5979 38.806 26.5985C38.847 27.9005 39.3152 29.096 40.0721 30.0151C39.2786 30.9655 38.7994 32.2146 38.785 33.5787C38.7812 33.6062 38.7794 33.634 38.7796 33.6618L38.7604 43.7778C38.7604 43.779 38.7604 43.7802 38.7604 43.7814C38.7604 43.7826 38.7604 43.7839 38.7604 43.7851V43.8618C38.7602 43.8954 38.763 43.929 38.7686 43.9622C38.7686 43.9634 38.7686 43.9646 38.7686 43.9658C38.7956 45.469 39.3823 46.8338 40.3368 47.8042C39.3493 48.8018 38.7476 50.2243 38.7486 51.7703V51.7713C38.7468 51.7898 38.7458 51.8084 38.7458 51.827L38.7321 58.9841C38.7313 58.9984 38.731 59.0127 38.7312 59.027C38.7312 59.0344 38.7321 59.0415 38.7321 59.0489V59.1028C38.7319 59.1348 38.7343 59.1669 38.7394 59.1986C38.7394 59.1989 38.7394 59.1992 38.7394 59.1995C38.8238 61.5359 40.5962 63.4605 42.826 63.4605C42.9689 63.4605 43.1099 63.4531 43.2487 63.4377C44.22 63.3301 45.084 62.8546 45.7297 62.1488C45.8936 61.9697 46.0413 61.7741 46.1752 61.5674C46.4053 61.6768 46.6424 61.7742 46.8935 61.844C49.4141 62.5446 51.9705 60.8507 52.5911 58.1645C52.6163 58.0552 52.633 57.9461 52.6514 57.8368C54.9073 58.6883 57.4997 57.7134 58.7434 55.4206C59.7327 53.5966 59.6554 51.4213 58.7078 49.7239C59.3581 49.1412 59.914 48.4136 60.3299 47.5596C61.8921 44.3511 60.992 40.431 58.3043 38.3858C58.6344 37.6616 58.8273 36.8532 58.8273 35.9952C58.8273 33.3526 57.0567 31.1136 54.695 30.6715C55.6825 28.1278 54.9788 25.1043 52.8228 23.4064C51.5729 22.422 50.0588 22.0913 48.6349 22.3466C48.0456 22.4523 47.474 22.6631 46.9407 22.9646C46.929 22.8746 46.9199 22.7836 46.9033 22.6953C46.5256 20.6913 44.8902 19.1444 42.8909 19.1444ZM42.8909 20.3128C44.4833 20.3128 45.8173 21.7406 45.8173 23.5789C45.8167 23.6456 45.8275 23.712 45.8493 23.7751C45.5326 24.0763 45.2407 24.4156 44.9876 24.8021C44.9258 24.8964 44.8926 25.0067 44.892 25.1195C44.8915 25.2323 44.9236 25.3428 44.9845 25.4378C45.0454 25.5328 45.1325 25.6081 45.2352 25.6547C45.338 25.7012 45.452 25.7171 45.5636 25.7003C45.5826 25.6976 45.6015 25.6939 45.6201 25.6893C45.6771 25.6748 45.7316 25.6517 45.7817 25.6209C45.7981 25.6107 45.8139 25.5997 45.8292 25.588C45.8825 25.5477 45.9285 25.4987 45.9652 25.4429C47.4104 23.2358 50.1092 22.7567 52.1002 24.3247C54.0912 25.8927 54.5641 28.9992 53.1189 31.2065C52.2148 32.5873 50.8111 33.2663 49.4083 33.2202C49.379 31.8626 48.8508 30.5232 47.8346 29.5461C48.4083 28.6725 48.7513 27.6112 48.762 26.47C48.7634 26.3928 48.7495 26.3162 48.7211 26.2445C48.6927 26.1728 48.6504 26.1074 48.5966 26.0521C48.5428 25.9968 48.4786 25.9527 48.4077 25.9224C48.3367 25.892 48.2605 25.876 48.1834 25.8753C48.1062 25.8746 48.0297 25.8892 47.9582 25.9182C47.8868 25.9472 47.8217 25.99 47.7669 26.0443C47.7121 26.0986 47.6685 26.1632 47.6388 26.2343C47.6091 26.3055 47.5937 26.3819 47.5937 26.459C47.5712 28.8352 45.8226 30.6781 43.7398 30.6543C41.6569 30.6306 39.9428 28.7458 39.9653 26.3696C39.9656 26.3501 39.965 26.3306 39.9634 26.3111C39.9629 26.3072 39.9623 26.3032 39.9616 26.2993L39.9662 23.8374L39.9671 23.5398C39.9862 21.7208 41.31 20.3128 42.8909 20.3128ZM47.0844 30.4503C48.4919 31.8699 48.6313 34.3236 47.3618 35.9236C47.2609 36.0507 47.1551 36.1684 47.0442 36.2768C46.9939 36.326 46.9393 36.3665 46.8872 36.4119C46.8467 36.3541 46.8095 36.2935 46.7667 36.2376C46.003 35.2395 44.887 34.5547 43.5892 34.4284C43.5698 34.4265 43.5503 34.4256 43.5308 34.4256C43.3811 34.4263 43.2373 34.4845 43.1293 34.5881C43.0212 34.6917 42.957 34.8329 42.95 34.9824C42.943 35.132 42.9936 35.2785 43.0915 35.3918C43.1894 35.5051 43.327 35.5765 43.476 35.5913C45.3834 35.777 46.842 37.6494 46.6654 39.8313C46.6378 40.1724 46.5717 40.4981 46.4728 40.8043C46.4474 40.8778 46.4369 40.9556 46.442 41.0332C46.447 41.1107 46.4675 41.1865 46.5022 41.2561C46.537 41.3256 46.5852 41.3876 46.6442 41.4382C46.7031 41.4889 46.7716 41.5273 46.8456 41.5512C46.9196 41.575 46.9976 41.5839 47.075 41.5773C47.1525 41.5706 47.2278 41.5485 47.2966 41.5124C47.3655 41.4763 47.4264 41.4267 47.4758 41.3668C47.5253 41.3068 47.5622 41.2375 47.5846 41.1631C47.7113 40.7709 47.7952 40.3563 47.8301 39.9253C47.9005 39.0557 47.7617 38.2133 47.4586 37.4589C47.7544 37.2282 48.0305 36.9602 48.2765 36.6501C48.8103 35.9774 49.1531 35.1985 49.3116 34.39C51.1441 34.4698 52.9711 33.5649 54.0964 31.846C54.1124 31.8217 54.1247 31.7957 54.1402 31.7712C56.0885 31.9381 57.6591 33.7322 57.6591 35.9947C57.6591 36.6056 57.5434 37.1837 57.336 37.7054C57.328 37.7256 57.3169 37.7438 57.3086 37.7638C56.6075 37.4075 55.8733 37.1887 55.1352 37.1157C54.4202 37.0449 53.7055 37.1093 53.0184 37.2873C52.7962 36.6657 52.3775 36.1197 51.7852 35.7638C51.6852 35.7016 51.5687 35.6711 51.4511 35.6762C51.3248 35.6816 51.2037 35.7278 51.106 35.8078C51.0082 35.8878 50.939 35.9974 50.9088 36.1201C50.8785 36.2428 50.8889 36.372 50.9383 36.4883C50.9877 36.6046 51.0734 36.7017 51.1827 36.7652C51.9532 37.228 52.2679 38.3546 51.8244 39.2426C51.755 39.3814 51.673 39.5044 51.5816 39.6113C51.5317 39.6696 51.4938 39.7372 51.4701 39.8102C51.4463 39.8831 51.4372 39.9601 51.4431 40.0366C51.4491 40.1131 51.4701 40.1876 51.5049 40.256C51.5397 40.3244 51.5876 40.3853 51.6459 40.4351C51.7043 40.485 51.7718 40.5229 51.8448 40.5467C51.9178 40.5704 51.9947 40.5796 52.0712 40.5736C52.1477 40.5676 52.2222 40.5466 52.2906 40.5118C52.359 40.477 52.4199 40.4291 52.4698 40.3708C52.624 40.1905 52.7584 39.9873 52.8696 39.7647C53.0792 39.3449 53.1843 38.8951 53.1982 38.4484C54.4516 38.0902 55.8131 38.2187 57.0548 38.9459C59.6778 40.4821 60.7018 44.1266 59.2794 47.048C58.5743 48.4961 57.4192 49.4767 56.1229 49.9188C55.5395 50.1178 54.9615 50.0646 54.3401 49.7399C53.7188 49.4152 53.0686 48.7988 52.4816 47.8814C52.4786 47.8768 52.4756 47.8723 52.4725 47.8677C53.2914 47.2198 53.8382 46.1934 53.8864 45.0362C53.8907 44.9582 53.8794 44.8801 53.853 44.8066C53.8266 44.7331 53.7857 44.6656 53.7327 44.6082C53.6798 44.5507 53.6159 44.5045 53.5448 44.4722C53.4737 44.4398 53.3968 44.4221 53.3187 44.42C53.1639 44.4159 53.0138 44.4733 52.9013 44.5798C52.7889 44.6862 52.7233 44.833 52.719 44.9878C52.659 46.4278 51.579 47.4757 50.3493 47.414C50.1571 47.4044 49.9729 47.3682 49.7971 47.3091C49.7239 47.2825 49.6461 47.2709 49.5684 47.2749C49.4906 47.2788 49.4144 47.2983 49.3443 47.3321C49.2742 47.3659 49.2115 47.4134 49.16 47.4718C49.1085 47.5302 49.0691 47.5983 49.0443 47.6721C49.0195 47.7459 49.0097 47.8239 49.0154 47.9016C49.0212 47.9792 49.0424 48.0549 49.0778 48.1243C49.1133 48.1936 49.1622 48.2551 49.2218 48.3053C49.2813 48.3554 49.3503 48.3932 49.4247 48.4163C49.6995 48.5087 49.9905 48.5655 50.2909 48.5806C50.6956 48.6009 51.084 48.5409 51.4484 48.4208C51.4621 48.4524 51.4786 48.4826 51.4977 48.5112C52.1661 49.5557 52.9413 50.3278 53.7989 50.7759C54.6565 51.224 55.6115 51.3272 56.4999 51.0242C56.9356 50.8755 57.3543 50.673 57.7531 50.429C58.4351 51.7574 58.4805 53.4553 57.7166 54.8635C56.6565 56.8179 54.522 57.5022 52.721 56.5951C52.5938 54.4886 51.2588 52.6027 49.2505 52.0274C49.4094 51.0576 49.2125 50.0238 48.6262 49.1676C48.572 49.086 48.4983 49.0194 48.4117 48.9738C48.3251 48.9282 48.2284 48.905 48.1305 48.9065C48.0475 48.9079 47.9657 48.9269 47.8907 48.9623C47.8156 48.9978 47.7489 49.0488 47.6951 49.112C47.6413 49.1753 47.6016 49.2492 47.5786 49.329C47.5556 49.4088 47.5499 49.4925 47.5618 49.5747C47.5645 49.594 47.5682 49.6132 47.5728 49.6322C47.5903 49.7023 47.6206 49.7685 47.6623 49.8276C48.4361 50.9576 48.2169 52.5978 47.2049 53.4313C47.0467 53.5617 46.8798 53.6644 46.7093 53.7417C46.6388 53.773 46.5752 53.8179 46.5222 53.8739C46.4691 53.93 46.4277 53.9959 46.4003 54.068C46.3728 54.1401 46.36 54.2169 46.3624 54.294C46.3648 54.3711 46.3824 54.447 46.4143 54.5172C46.4462 54.5875 46.4916 54.6507 46.548 54.7033C46.6045 54.7559 46.6708 54.7968 46.7431 54.8236C46.8154 54.8505 46.8923 54.8627 46.9694 54.8597C47.0465 54.8567 47.1222 54.8384 47.1922 54.806C47.4572 54.6858 47.711 54.5276 47.9471 54.3332C48.3523 53.9994 48.667 53.5895 48.8927 53.1383C48.8966 53.1396 48.9006 53.1408 48.9046 53.142C50.766 53.6593 51.9429 55.7817 51.4531 57.9015C50.994 59.8887 49.2992 61.0803 47.5554 60.7952C47.4392 60.7762 47.3231 60.7508 47.2068 60.7185C47.0218 60.6671 46.8472 60.5957 46.6773 60.5149C46.8321 60.0475 46.9201 59.5474 46.9201 59.027C46.9211 58.9497 46.9067 58.8729 46.8778 58.8012C46.8489 58.7295 46.806 58.6642 46.7517 58.6091C46.6973 58.5541 46.6326 58.5104 46.5612 58.4806C46.4899 58.4508 46.4133 58.4354 46.3359 58.4354C46.2586 58.4354 46.182 58.4508 46.1106 58.4806C46.0393 58.5104 45.9746 58.5541 45.9202 58.6091C45.8659 58.6642 45.823 58.7295 45.7941 58.8012C45.7651 58.8729 45.7508 58.9497 45.7517 59.027C45.7517 60.7504 44.5796 62.1123 43.121 62.2757C43.0238 62.2866 42.9257 62.2922 42.8262 62.2922C41.2402 62.2922 39.9113 60.8765 39.9006 59.0489C39.9006 59.0483 39.9006 59.0477 39.9006 59.0471L39.9143 52.0634C39.9168 52.0321 39.9168 52.0006 39.9143 51.9693C39.8135 49.6335 41.4154 47.7058 43.4496 47.5422C43.6727 48.1463 44.044 48.6971 44.5624 49.1241C44.7984 49.3185 45.0531 49.4759 45.3182 49.596C45.3883 49.6291 45.4642 49.6479 45.5417 49.6513C45.6191 49.6548 45.6964 49.6428 45.7691 49.616C45.8419 49.5893 45.9085 49.5483 45.9653 49.4956C46.0221 49.4428 46.0677 49.3793 46.0997 49.3087C46.1317 49.2381 46.1493 49.1618 46.1515 49.0844C46.1537 49.0069 46.1405 48.9298 46.1126 48.8575C46.0847 48.7852 46.0427 48.7191 45.9891 48.6632C45.9354 48.6073 45.8712 48.5626 45.8001 48.5317C45.6296 48.4544 45.4636 48.3526 45.3054 48.2223C44.2934 47.3888 44.0742 45.7486 44.8481 44.6185C44.9102 44.5304 44.9468 44.4268 44.9537 44.3192C44.9607 44.2116 44.9377 44.1041 44.8873 44.0088C44.8369 43.9134 44.7611 43.8339 44.6684 43.7789C44.5756 43.724 44.4694 43.6958 44.3615 43.6975C44.2666 43.6989 44.1734 43.7234 44.0901 43.7689C44.0068 43.8143 43.9358 43.8795 43.8832 43.9586C43.3819 44.6907 43.165 45.5531 43.2114 46.3939C42.5026 46.473 41.8435 46.709 41.2607 47.0703C40.4401 46.2852 39.9116 45.1131 39.929 43.7961L39.9381 38.8322L39.9481 33.7343C39.9491 33.7185 39.9494 33.7026 39.9491 33.6868C39.9386 32.5864 40.3065 31.5864 40.9084 30.8315C41.7034 31.443 42.6719 31.8108 43.7271 31.8228C45.0222 31.8376 46.1949 31.3115 47.0845 30.4509L47.0844 30.4503ZM37.4324 31.8597C32.2312 31.8886 28.0231 36.1359 28.0423 41.3373C28.0615 46.5245 32.2785 50.7317 37.4605 50.7447V49.5754C32.9084 49.5621 29.2275 45.89 29.2107 41.3326C29.1937 36.7618 32.8689 33.0533 37.4395 33.0276C37.4465 33.0276 37.4534 33.0286 37.4605 33.0286V31.8602C37.451 31.8602 37.4416 31.8592 37.4322 31.8592L37.4324 31.8597Z" fill="#111111"/>
<path d="M99.108 0C101.144 0 102.896 0.735169 104.367 2.20528C105.837 3.67539 106.572 5.42822 106.572 7.46376C106.572 9.57473 105.818 11.3464 104.31 12.7789C102.802 14.2114 101.068 14.9275 99.1082 14.9275C96.9973 14.9275 95.2256 14.2114 93.7931 12.7789C92.3606 11.3464 91.6445 9.57473 91.6445 7.46376C91.6445 5.35279 92.3984 3.58108 93.9062 2.14862C95.414 0.716169 97.1479 0 99.108 0ZM104.197 26.6882V80.2908H94.0192V26.6882H104.197ZM146.83 25.3312C148.715 25.3312 150.223 25.5573 151.354 26.0097L150.901 36.979C148.941 36.4512 147.245 36.1874 145.812 36.1874C135.786 36.1874 130.696 41.7662 130.546 52.924V80.2908H120.368V26.6882H130.546V34.9434H130.772C132.129 32.0786 134.315 29.7604 137.331 27.9887C140.347 26.217 143.513 25.3312 146.83 25.3312ZM185.618 25.4443C194.138 25.4443 200.998 28.2714 206.2 33.9257L198.51 40.937C194.816 36.9413 190.368 34.9434 185.166 34.9434C180.19 34.9434 176.157 36.7152 173.066 40.2585C169.975 43.8018 168.429 48.3627 168.429 53.9418C168.429 59.2192 170.05 63.5541 173.292 66.9467C176.534 70.3392 180.681 72.0732 185.732 72.1486C191.084 72.1486 195.419 70.1507 198.736 66.1551L205.974 73.3925C201.149 78.8961 194.363 81.6478 185.618 81.6478C177.401 81.6478 170.71 79.0845 165.546 73.958C160.381 68.8314 157.724 62.084 157.573 53.7156C157.649 45.1963 160.306 38.3733 165.546 33.2472C170.785 28.121 177.476 25.5195 185.618 25.4443Z" fill="white"/>
</g>
<defs>
<clipPath id="clip0_22_68">
<rect width="206.2" height="81.6478" fill="white"/>
</clipPath>
</defs>
</svg>
