<svg width="460" height="190" viewBox="0 0 460 190" fill="none" xmlns="http://www.w3.org/2000/svg">
<g clip-path="url(#clip0_1_12)">
<path fill-rule="evenodd" clip-rule="evenodd" d="M83.7502 144.198V175.341C83.7502 178.219 82.5877 180.976 80.5065 182.977C78.5191 184.904 75.2752 186.001 72.5002 186.001C65.5065 186.001 61.7002 184.932 59.3374 182.785C58.2499 181.787 57.3874 180.526 56.7124 178.899C55.1374 178.988 53.6374 178.777 52.2687 178.201C49.4187 176.982 47.4874 174.662 46.2874 172.233C45.7437 171.16 45.3499 170.082 45.0687 169.121C39.65 168.629 36.6874 165.568 34.5874 161.846C32.8624 158.771 32.0937 154.988 30.2374 152.776C22.7 143.733 20 136.027 20 129.75C20 116.981 30.5187 109.486 35.1308 106.81C35.8058 100.167 40.1182 94.758 44.2434 92.7372C44.2059 91.195 44.4121 89.7372 44.8059 88.3685C46.3433 83.2216 51.0309 78.9372 58.9431 75.9329C60.2556 72.1266 63.2556 69.0985 67.4931 67.1345C69.0305 66.3845 70.6993 66.0095 72.3681 66.0001C74.4493 65.9907 76.5493 66.5626 78.3868 67.7064C81.6868 69.7642 83.7118 73.383 83.7118 77.2783C83.7305 88.1017 83.7305 107.419 83.7493 126.558L86.993 125.498L93.3117 106.092C93.818 104.545 95.243 103.5 96.8743 103.5C98.5056 103.5 99.9306 104.545 100.437 106.092L106.756 125.498L126.162 131.807C127.699 132.309 128.749 133.753 128.749 135.375C128.749 136.997 127.699 138.44 126.162 138.942L106.756 145.251L100.437 164.658C99.9306 166.205 98.5056 167.25 96.8743 167.25C95.243 167.25 93.818 166.205 93.3117 164.658L86.993 145.251L83.7502 144.198ZM68.0194 86.9818C66.1444 84.0334 65.432 81.474 65.8069 79.2615C66.2381 76.8287 68.1319 75.0989 70.6632 73.9318C70.7007 73.9177 70.7382 73.9037 70.7569 73.8896C71.2819 73.6318 71.8444 73.5052 72.4069 73.5005C73.1007 73.4959 73.8132 73.688 74.4319 74.0724C75.5382 74.7615 76.2132 75.9755 76.2132 77.2787V77.2881C76.2507 99.1605 76.2507 155.701 76.2507 175.341C76.2507 176.185 75.9132 176.996 75.2944 177.587C74.6194 178.248 73.457 178.501 72.5007 178.501C70.007 178.501 68.057 178.407 66.5194 178.102C65.6007 177.919 64.9069 177.704 64.4007 177.244C64.232 177.085 64.082 176.907 63.9507 176.705C67.0257 175.121 69.7633 173.058 71.0007 172.158C72.6694 170.94 73.0444 168.591 71.8257 166.918C70.607 165.244 68.2631 164.874 66.5944 166.093C65.3381 167.002 62.3007 169.379 59.0944 170.696C57.7444 171.254 56.357 171.788 55.2319 171.301C54.1069 170.827 53.4693 169.829 52.9819 168.882C52.9069 168.699 52.8131 168.512 52.7381 168.329C62.4881 165.563 67.6253 157.069 68.2073 156.066C68.8073 155.11 76.0073 142.73 63.651 132.497C62.0948 131.194 60.726 129.975 59.7136 128.845C62.3762 123.506 61.1573 117.708 61.1573 117.708C60.7261 115.687 58.7386 114.398 56.7136 114.834C54.6886 115.27 53.3949 117.267 53.8449 119.292C53.8449 119.292 54.8574 123.731 52.0636 126.876C50.8262 128.287 48.801 129.342 45.7073 129.787C40.3448 130.565 38.1699 127.753 38.1699 127.753C37.0636 126 34.7573 125.475 32.9949 126.576C31.2512 127.678 30.7262 129.998 31.8324 131.747C31.8324 131.747 35.8449 138.797 46.7952 137.212C50.1326 136.73 52.6826 135.717 54.6889 134.428C55.8514 135.637 57.2576 136.926 58.8515 138.253V138.262C66.4452 144.544 61.8327 152.128 61.8327 152.128C61.7952 152.194 61.739 152.269 61.7015 152.339C61.7015 152.339 57.1265 160.838 47.8079 161.639C46.0266 161.789 44.6766 161.564 43.6266 160.964C41.9203 159.989 41.0766 158.208 40.2703 156.436C39.7641 155.311 39.2953 154.172 38.8266 153.071C42.0703 152.447 45.8953 150.708 50.1141 147.577C50.3391 147.769 50.5828 147.975 50.8078 148.186C51.2953 148.632 51.8765 149.021 52.0078 149.489C52.5515 151.486 54.6141 152.663 56.6204 152.119C58.6078 151.571 59.7891 149.503 59.2454 147.511C58.9079 146.246 58.0266 144.844 56.8266 143.583C54.8392 141.483 51.9892 139.697 51.9892 139.697C50.6205 138.835 48.8392 138.957 47.5829 140.007C43.8704 143.129 40.5704 145.013 37.7766 145.636C36.1079 146.011 34.6829 145.913 33.7079 145.041C29.3392 139.111 27.5016 134.063 27.5016 129.751C27.5016 122.396 32.4329 117.539 36.1642 114.92C37.4205 118.351 39.8205 121.876 43.8892 125.167C45.5018 126.47 47.8642 126.217 49.1579 124.614C50.4705 123.001 50.2267 120.639 48.6142 119.335C45.0142 116.42 43.1955 113.331 42.6892 110.368C41.9579 106.173 43.8142 102.329 46.1392 100.379C46.3079 100.726 46.4767 101.078 46.6454 101.429C48.6704 105.47 52.0829 108.043 57.8204 110.664C59.7517 111.545 65.0017 114.287 65.0017 120.376V126.001C65.0017 128.073 66.6891 129.751 68.7517 129.751C70.833 129.751 72.5017 128.073 72.5017 126.001V120.376C72.5017 110.204 64.158 105.31 60.933 103.839C57.1643 102.119 54.6893 100.726 53.358 98.0733C51.8954 95.167 51.3705 92.6733 52.008 90.4983C52.7955 87.8217 55.158 85.8296 58.7017 84.1609C59.208 86.2139 60.108 88.4078 61.533 90.7328C60.108 91.4031 59.208 92.9312 59.4143 94.5765C59.658 96.6343 61.5143 98.0968 63.5768 97.8484C71.2455 96.9203 72.3705 91.3797 72.3705 91.3797C72.9143 89.3828 71.7518 87.3157 69.7643 86.7625C69.2018 86.6078 68.583 86.7296 68.0205 86.9828L68.0194 86.9818ZM113.75 159.751H110C107.938 159.751 106.25 161.429 106.25 163.501C106.25 165.573 107.938 167.251 110 167.251H113.75V171.001C113.75 173.073 115.438 174.751 117.5 174.751C119.563 174.751 121.25 173.073 121.25 171.001V167.251H125C127.063 167.251 128.75 165.573 128.75 163.501C128.75 161.429 127.063 159.751 125 159.751H121.25V156.001C121.25 153.929 119.563 152.251 117.5 152.251C115.438 152.251 113.75 153.929 113.75 156.001V159.751ZM83.7502 136.309L91.1377 138.714C92.2814 139.079 93.1627 139.979 93.5377 141.118L96.8751 151.375L100.213 141.118C100.588 139.979 101.469 139.079 102.613 138.714L112.869 135.376L102.613 132.039C101.469 131.673 100.588 130.773 100.213 129.634L96.8751 119.378L93.5377 129.634C93.1627 130.773 92.2814 131.673 91.1377 132.039L83.7502 134.443V136.309ZM122.937 79.843C122.431 78.2961 121.006 77.2508 119.375 77.2508C117.744 77.2508 116.319 78.2961 115.812 79.843L112.25 90.7602L101.337 94.3086C99.7998 94.8102 98.7498 96.254 98.7498 97.8759C98.7498 99.4978 99.7998 100.942 101.337 101.443L112.25 104.992L115.812 115.909C116.319 117.456 117.744 118.501 119.375 118.501C121.006 118.501 122.431 117.456 122.937 115.909L126.5 104.992L137.413 101.443C138.95 100.942 140 99.4978 140 97.8759C140 96.254 138.95 94.8102 137.413 94.3086L126.5 90.7602L122.937 79.843ZM119.375 93.127L119.956 94.8942C120.312 96.038 121.212 96.9286 122.356 97.3036L124.119 97.8755L122.356 98.4473C121.212 98.8223 120.312 99.713 119.956 100.857L119.375 102.624L118.794 100.857C118.437 99.713 117.537 98.8223 116.394 98.4473L114.631 97.8755L116.394 97.3036C117.537 96.9286 118.437 96.038 118.794 94.8942L119.375 93.127Z" fill="#101010"/>
<path d="M160 188.215V185.336H176.507V64.2226H160V61.3436H216.622V64.2226H199.923V185.336H216.622V188.215H160ZM228.522 188.215V185.336H245.221V64.2226H228.522V61.3436H282.649C318.349 61.3436 330.633 74.5873 330.633 93.5893C330.633 108.752 320.845 120.845 293.013 124.683V125.067C310.48 127.946 324.299 136.967 326.603 156.929C328.138 171.132 327.562 184.568 335.624 184.568C340.614 184.568 343.877 178.81 343.877 171.516H346.756C346.564 183.225 340.998 189.175 329.29 189.175C305.873 189.175 302.035 168.637 301.075 155.393C300.307 145.029 298.964 126.411 284.376 126.411H268.637V185.336H285.144V188.215H228.522ZM268.637 123.532H283.992C300.691 123.532 305.873 113.935 305.873 94.7409C305.873 74.9712 300.115 64.2226 283.033 64.2226H268.637V123.532ZM455.393 150.403H458.464C458.464 164.607 448.868 189.559 416.43 189.559C379.77 189.559 356.545 162.495 356.545 124.107C356.545 86.1036 380.921 60 416.43 60C428.33 60 438.887 63.6468 446.372 70.5566C451.939 70.5566 454.818 68.4453 457.505 61.3436H460C459.04 64.6065 456.353 81.1132 456.353 88.9827V100.883H453.474V93.5893C453.474 75.3551 438.119 62.8791 416.43 62.8791C387.447 62.8791 381.689 94.357 381.689 125.067C381.689 157.697 388.215 186.679 416.814 186.679C425.643 186.679 433.512 184.376 439.463 180.537C450.019 173.628 455.393 161.536 455.393 150.403Z" fill="#101010"/>
</g>
<defs>
<clipPath id="clip0_1_12">
<rect width="460" height="189.559" fill="white"/>
</clipPath>
</defs>
</svg>
